<svg width="27" height="30" viewBox="0 0 27 30" version="1.1" xmlns="http://www.w3.org/2000/svg" xmlns:xlink="http://www.w3.org/1999/xlink">
<title>&#229;&#158;&#131;&#229;&#156;&#190;&#230;&#161;&#182;</title>
<desc>Created using Figma</desc>
<g id="Canvas" transform="translate(-4967 318)">
<g id="&#229;&#158;&#131;&#229;&#156;&#190;&#230;&#161;&#182;">
<g id="Vector">
<use xlink:href="#path0_fill" transform="translate(4969.5 -310.5)" fill="#349AFA"/>
</g>
<g id="Vector">
<use xlink:href="#path1_fill" transform="translate(4967 -318)" fill="#349AFA"/>
</g>
<g id="Vector">
<use xlink:href="#path2_fill" transform="translate(4975.75 -306.5)" fill="#349AFA"/>
</g>
<g id="Vector">
<use xlink:href="#path2_fill" transform="translate(4983.25 -306.5)" fill="#349AFA"/>
</g>
</g>
</g>
<defs>
<path id="path0_fill" d="M 20.75 0C 20.325 0 20 0.325 20 0.75L 20 19.05C 20 20.125 19.125 21 18.05 21L 3.45 21C 2.375 21 1.5 20.125 1.5 19.05L 1.5 0.75C 1.5 0.325 1.175 0 0.75 0C 0.325 0 1.19209e-07 0.325 1.19209e-07 0.75L 1.19209e-07 19.05C 1.19209e-07 20.95 1.55 22.5 3.45 22.5L 18.075 22.5C 19.975 22.5 21.525 20.95 21.525 19.05L 21.525 0.75C 21.5 0.325 21.175 0 20.75 0Z"/>
<path id="path1_fill" d="M 25.75 5L 17.75 5L 17.75 1.75C 17.75 0.775 16.95 0 16 0L 10.5 0C 9.525 0 8.75 0.8 8.75 1.75L 8.75 5L 0.75 5C 0.325 5 1.19209e-07 5.325 1.19209e-07 5.75C 1.19209e-07 6.175 0.325 6.5 0.75 6.5L 25.75 6.5C 26.175 6.5 26.5 6.175 26.5 5.75C 26.5 5.325 26.175 5 25.75 5ZM 10.25 1.75C 10.25 1.6 10.375 1.5 10.5 1.5L 16 1.5C 16.15 1.5 16.25 1.625 16.25 1.75L 16.25 5L 10.25 5L 10.25 1.75Z"/>
<path id="path2_fill" d="M 1.5 11.5L 1.5 0.75C 1.5 0.325 1.175 -2.38419e-07 0.75 -2.38419e-07C 0.325 -2.38419e-07 -4.76837e-07 0.325 -4.76837e-07 0.75L -4.76837e-07 11.5C -4.76837e-07 11.925 0.325 12.25 0.75 12.25C 1.175 12.25 1.5 11.9 1.5 11.5Z"/>
</defs>
</svg>
